<svg width="92" height="21" viewBox="0 0 92 21" fill="none" xmlns="http://www.w3.org/2000/svg">
<g id="peopleTitle">
<g id="PEOPLE">
<path d="M13.546 5.694V6.968C13.546 10.166 11.752 12.246 7.488 12.246H3.64V19.968H0V0.39H7.488C11.752 0.39 13.546 2.574 13.546 5.694ZM3.64 3.042V9.594H6.708C8.84 9.594 9.906 8.606 9.906 6.604V6.058C9.906 4.29 8.866 3.042 6.682 3.042H3.64Z" fill="black"/>
<path d="M16.4023 19.968V0.39H27.9463V3.042H20.0423V8.398H27.0103V10.946H20.0423V17.316H28.2843V19.968H16.4023Z" fill="black"/>
<path d="M41.0731 13.728V6.63C41.0731 4.03 39.8251 2.652 37.5371 2.652C35.2491 2.652 34.0011 4.03 34.0011 6.63V13.728C34.0011 16.328 35.2491 17.706 37.5371 17.706C39.8251 17.706 41.0731 16.328 41.0731 13.728ZM44.7131 6.526V13.832C44.7131 17.966 42.1131 20.358 37.5371 20.358C32.9611 20.358 30.3611 17.966 30.3611 13.832V6.526C30.3611 2.392 32.9611 0 37.5371 0C42.1131 0 44.7131 2.392 44.7131 6.526Z" fill="black"/>
<path d="M61.8898 5.694V6.968C61.8898 10.166 60.0957 12.246 55.8317 12.246H51.9837V19.968H48.3438V0.39H55.8317C60.0957 0.39 61.8898 2.574 61.8898 5.694ZM51.9837 3.042V9.594H55.0518C57.1838 9.594 58.2498 8.606 58.2498 6.604V6.058C58.2498 4.29 57.2097 3.042 55.0257 3.042H51.9837Z" fill="black"/>
<path d="M64.7461 19.968V0.39H68.3861V17.316H76.7061V19.968H64.7461Z" fill="black"/>
<path d="M79.2949 19.968V0.39H90.8389V3.042H82.9349V8.398H89.9029V10.946H82.9349V17.316H91.1769V19.968H79.2949Z" fill="black"/>
</g>
</g>
</svg>
