<svg width="85" height="24" viewBox="0 0 85 24" fill="none" xmlns="http://www.w3.org/2000/svg">
<rect width="85" height="24" fill="#F5F5F5"/>
<rect width="1440" height="1024" transform="translate(-560 -359)" fill="white"/>
<path d="M80.9632 12.732V1.13998H84.1312V12.732H80.9632ZM72.2512 1.59598C75.7312 1.59598 77.7712 3.49199 77.7712 6.01198V8.05199C77.7712 10.548 75.7312 12.372 72.2512 12.372C68.7712 12.372 66.7312 10.548 66.7312 8.05199V6.01198C66.7312 3.49199 68.7712 1.59598 72.2512 1.59598ZM72.2512 3.94799C70.9072 3.94799 69.9232 4.78798 69.9232 6.03599V7.93199C69.9232 9.17999 70.9072 10.02 72.2512 10.02C73.5952 10.02 74.5792 9.17999 74.5792 7.93199V6.03599C74.5792 4.78798 73.5952 3.94799 72.2512 3.94799ZM73.0672 13.932V16.26H80.9632V13.932H84.1312V22.908H69.8992V13.932H73.0672ZM73.0672 20.58H80.9632V18.516H73.0672V20.58Z" fill="black"/>
<path d="M64.6875 8.98799V11.46H61.3275V23.244H58.1595V1.13998H61.3275V8.98799H64.6875ZM45.7035 18.612L44.2395 16.116C46.2795 15.132 47.8155 14.196 49.5675 12.852C51.4155 11.436 51.8475 10.116 51.8475 8.00398V5.36398H44.8155V2.91598H55.0635V8.00398C55.0635 11.196 54.0315 13.164 51.3435 15.156C49.3515 16.596 47.6475 17.628 45.7035 18.612Z" fill="black"/>
<path d="M35.1396 5.29199C35.1396 7.76398 33.3876 9.10799 30.9636 9.10799H27.7476C25.3236 9.10799 23.5716 7.76398 23.5716 5.29199C23.5716 2.81998 25.3236 1.47598 27.7476 1.47598H30.9636C33.3876 1.47598 35.1396 2.81998 35.1396 5.29199ZM37.4436 16.98V15.492H32.8116V13.404H37.4436V1.13998H40.5636V16.98H37.4436ZM41.0436 20.34V22.764H25.7316V16.884H28.9236V20.34H41.0436ZM22.0356 10.164H36.2196V11.964L32.6196 12.396H30.5076V15.924H27.3876V12.42H22.0356V10.164ZM26.6436 5.29199C26.6436 6.22798 27.1716 6.80398 28.2276 6.80398H30.4836C31.5396 6.80398 32.0676 6.22798 32.0676 5.29199C32.0676 4.35598 31.5396 3.77998 30.4836 3.77998H28.2276C27.1716 3.77998 26.6436 4.35598 26.6436 5.29199Z" fill="black"/>
<path d="M12.816 11.004C12.816 13.476 11.184 15.204 8.76 15.204H8.712V17.22H14.544V19.212L10.944 19.668H0V17.22H5.52V15.204H5.4C2.976 15.204 1.344 13.476 1.344 11.004C1.344 8.53198 2.976 6.80398 5.4 6.80398H8.76C11.184 6.80398 12.816 8.53198 12.816 11.004ZM18.72 1.13998V23.244H15.552V1.13998H18.72ZM0.336 3.29998H5.472V0.755981H8.688V3.29998H13.512V5.74798H0.336V3.29998ZM4.512 11.004C4.512 12.18 5.136 12.756 6.168 12.756H7.992C9.024 12.756 9.648 12.18 9.648 11.004C9.648 9.82798 9.024 9.25198 7.992 9.25198H6.168C5.136 9.25198 4.512 9.82798 4.512 11.004Z" fill="black"/>
</svg>
