<svg width="275" height="54" viewBox="0 0 275 54" fill="none" xmlns="http://www.w3.org/2000/svg">
<path d="M21.6637 41.3778C21.6637 43.3572 21.1663 44.8392 20.1816 45.8239C19.187 46.8186 17.8044 47.306 16.0041 47.306C14.0744 47.306 12.662 46.7688 11.7569 45.6847C10.8617 44.6005 10.4141 43.1483 10.4141 41.3082V1.03444H0V40.8307C0 42.7206 0.268558 44.4612 0.795727 46.0726C1.3229 47.6839 2.19819 49.0764 3.42162 50.2402C4.63511 51.4139 6.21661 52.329 8.14625 52.9954C10.0759 53.6618 12.473 54 15.3177 54C18.6299 54 21.1763 53.5524 22.9766 52.6572C24.767 51.762 26.06 50.7873 26.8359 49.723C27.6217 50.7773 28.9247 51.762 30.7648 52.6572C32.6049 53.5524 35.1811 54 38.4933 54C41.2485 54 43.5959 53.6817 45.5255 53.0352C47.4551 52.3887 49.0267 51.4935 50.2501 50.3496C51.4636 49.1958 52.3588 47.8132 52.9059 46.182C53.4629 44.5507 53.7314 42.7703 53.7314 40.8407V1.03444H43.4566V41.3082C43.4566 43.0985 42.9991 44.5507 42.074 45.6548C41.149 46.7589 39.7267 47.306 37.797 47.306C35.8674 47.306 34.5445 46.8086 33.5598 45.8239C32.5751 44.8392 32.0777 43.3572 32.0777 41.3778V1.03444H21.6637V41.3778ZM62.3651 52.9656H90.6432V46.3411H72.7095V29.1634H88.8528V22.4097H72.7095V7.65887H89.9569V1.03444H62.3651V52.9656ZM119.956 52.9656H130.231V12.6222C130.231 10.6926 130.728 9.22048 131.713 8.20593C132.697 7.19138 134.11 6.6841 135.95 6.6841C137.88 6.6841 139.302 7.22122 140.227 8.3054C141.142 9.38958 141.609 10.8716 141.609 12.7515V52.9556H151.954V13.1693C151.954 11.3292 151.705 9.6084 151.198 7.99705C150.691 6.38571 149.845 4.99318 148.642 3.82943C147.448 2.65574 145.887 1.72076 143.947 1.03444C142.027 0.34813 139.61 0 136.716 0C133.453 0 130.907 0.43765 129.097 1.31295C127.276 2.18825 125.954 3.22269 125.128 4.41628C124.342 3.27243 123.039 2.24793 121.199 1.34279C119.349 0.447596 116.803 0 113.54 0C110.785 0 108.438 0.318291 106.508 0.964819C104.578 1.61135 102.987 2.50654 101.754 3.6504C100.51 4.8042 99.615 6.18677 99.068 7.81801C98.511 9.44925 98.2424 11.2297 98.2424 13.1593V52.9556H108.587V12.7615C108.587 10.8816 109.044 9.38957 109.969 8.31534C110.885 7.23117 112.337 6.69405 114.316 6.69405C118.086 6.69405 119.976 8.67342 119.976 12.6222V52.9656H119.956ZM172.514 30.2774L176.104 7.65887H179.824L183.415 30.2774H172.514ZM184.38 36.9714L186.866 52.9755H197.698L188.726 1.03444H167.202L158.369 52.9656H169.132L171.549 36.9615H184.38V36.9714ZM238.32 14.2137C238.32 10.0759 237.067 6.84325 234.56 4.5257C232.054 2.20814 227.976 1.04439 222.316 1.04439H204.174V52.9755H222.316C227.976 52.9755 232.054 51.8913 234.56 49.7329C237.067 47.5745 238.32 44.511 238.32 40.5622V14.2037V14.2137ZM214.518 7.65887H221.55C224.077 7.65887 225.777 8.23577 226.653 9.37963C227.528 10.5334 227.966 12.2045 227.966 14.4126V39.5874C227.966 41.9348 227.409 43.6456 226.305 44.7298C225.201 45.814 223.41 46.3511 220.924 46.3511H214.508V7.65887H214.518ZM246.456 52.9755H274.804V46.3511H256.801V29.1733H273.083V22.4196H256.801V7.65887H274.048V1.03444H246.456V52.9656V52.9755Z" fill="black"/>
</svg>
