<svg width="275" height="55" viewBox="0 0 275 55" fill="none" xmlns="http://www.w3.org/2000/svg">
<path d="M21.6637 41.7995C21.6637 43.7788 21.1663 45.2609 20.1816 46.2456C19.187 47.2403 17.8044 47.7276 16.0041 47.7276C14.0744 47.7276 12.662 47.1905 11.7569 46.1063C10.8617 45.0222 10.4141 43.57 10.4141 41.7299V1.45614H0V41.2524C0 43.1423 0.268558 44.8829 0.795727 46.4943C1.3229 48.1056 2.19819 49.4981 3.42162 50.6619C4.63511 51.8356 6.21661 52.7507 8.14625 53.4171C10.0759 54.0835 12.473 54.4217 15.3177 54.4217C18.6299 54.4217 21.1763 53.9741 22.9766 53.0789C24.767 52.1837 26.06 51.2089 26.8359 50.1447C27.6217 51.199 28.9247 52.1837 30.7648 53.0789C32.6049 53.9741 35.1811 54.4217 38.4933 54.4217C41.2485 54.4217 43.5959 54.1034 45.5255 53.4569C47.4551 52.8103 49.0267 51.9151 50.2501 50.7713C51.4636 49.6175 52.3588 48.2349 52.9059 46.6037C53.4629 44.9724 53.7314 43.192 53.7314 41.2624V1.45614H43.4566V41.7299C43.4566 43.5202 42.9991 44.9724 42.074 46.0765C41.149 47.1806 39.7267 47.7276 37.797 47.7276C35.8674 47.7276 34.5445 47.2303 33.5598 46.2456C32.5751 45.2609 32.0777 43.7788 32.0777 41.7995V1.45614H21.6637V41.7995ZM62.3651 53.3872H90.6432V46.7628H72.7095V29.5851H88.8528V22.8313H72.7095V8.08056H89.9569V1.45614H62.3651V53.3872ZM119.956 53.3872H130.231V13.0439C130.231 11.1143 130.728 9.64217 131.713 8.62762C132.697 7.61307 134.11 7.1058 135.95 7.1058C137.88 7.1058 139.302 7.64291 140.227 8.72709C141.142 9.81127 141.609 11.2933 141.609 13.1732V53.3773H151.954V13.591C151.954 11.7508 151.705 10.0301 151.198 8.41874C150.691 6.8074 149.845 5.41488 148.642 4.25113C147.448 3.07743 145.887 2.14245 143.947 1.45614C142.027 0.769822 139.61 0.421692 136.716 0.421692C133.453 0.421692 130.907 0.859342 129.097 1.73464C127.276 2.60994 125.954 3.64438 125.128 4.83797C124.342 3.69412 123.039 2.66962 121.199 1.76448C119.349 0.869288 116.803 0.421692 113.54 0.421692C110.785 0.421692 108.438 0.739983 106.508 1.38651C104.578 2.03304 102.987 2.92823 101.754 4.07209C100.51 5.22589 99.615 6.60847 99.068 8.23971C98.511 9.87095 98.2424 11.6514 98.2424 13.581V53.3773H108.587V13.1832C108.587 11.3033 109.044 9.81127 109.969 8.73703C110.885 7.65286 112.337 7.11574 114.316 7.11574C118.086 7.11574 119.976 9.09511 119.976 13.0439V53.3872H119.956ZM172.514 30.6991L176.104 8.08056H179.824L183.415 30.6991H172.514ZM184.38 37.3931L186.866 53.3972H197.698L188.726 1.45614H167.202L158.369 53.3872H169.132L171.549 37.3832H184.38V37.3931ZM238.32 14.6354C238.32 10.4976 237.067 7.26494 234.56 4.94739C232.054 2.62983 227.976 1.46608 222.316 1.46608H204.174V53.3972H222.316C227.976 53.3972 232.054 52.313 234.56 50.1546C237.067 47.9962 238.32 44.9326 238.32 40.9839V14.6254V14.6354ZM214.518 8.08056H221.55C224.077 8.08056 225.777 8.65746 226.653 9.80132C227.528 10.9551 227.966 12.6261 227.966 14.8343V40.0091C227.966 42.3565 227.409 44.0673 226.305 45.1515C225.201 46.2357 223.41 46.7728 220.924 46.7728H214.508V8.08056H214.518ZM246.456 53.3972H274.804V46.7728H256.801V29.595H273.083V22.8413H256.801V8.08056H274.048V1.45614H246.456V53.3872V53.3972Z" fill="#9F9A94"/>
</svg>
