<svg width="84" height="19" viewBox="0 0 84 19" fill="none" xmlns="http://www.w3.org/2000/svg">
<g id="logoGrey" clip-path="url(#clip0_4_662)">
<mask id="mask0_4_662" style="mask-type:luminance" maskUnits="userSpaceOnUse" x="0" y="0" width="84" height="19">
<g id="clippath">
<path id="Vector" d="M84 0.755981H0V18.756H84V0.755981Z" fill="white"/>
</g>
</mask>
<g mask="url(#mask0_4_662)">
<g id="Group">
<path id="Vector_2" d="M6.62198 14.5486C6.62198 15.2084 6.46996 15.7024 6.16896 16.0306C5.86492 16.3622 5.44231 16.5246 4.89199 16.5246C4.30216 16.5246 3.87042 16.3456 3.59375 15.9842C3.32011 15.6228 3.18329 15.1387 3.18329 14.5254V1.1008H0V14.3662C0 14.9962 0.0820906 15.5764 0.243232 16.1135C0.404372 16.6506 0.671927 17.1148 1.0459 17.5027C1.41682 17.8939 1.90025 18.199 2.49008 18.4211C3.07992 18.6433 3.81265 18.756 4.68221 18.756C5.69466 18.756 6.473 18.6068 7.02331 18.3084C7.57058 18.01 7.96583 17.6851 8.20298 17.3303C8.44317 17.6818 8.84147 18.01 9.40394 18.3084C9.96641 18.6068 10.7539 18.756 11.7663 18.756C12.6085 18.756 13.326 18.6499 13.9159 18.4344C14.5057 18.2189 14.9861 17.9205 15.3601 17.5392C15.731 17.1546 16.0046 16.6937 16.1719 16.15C16.3421 15.6062 16.4242 15.0128 16.4242 14.3695V1.1008H13.2835V14.5254C13.2835 15.1222 13.1436 15.6062 12.8609 15.9743C12.5781 16.3423 12.1433 16.5246 11.5535 16.5246C10.9637 16.5246 10.5593 16.3589 10.2583 16.0306C9.95729 15.7024 9.80527 15.2084 9.80527 14.5486V1.1008H6.62198V14.5486ZM19.0633 18.4112H27.7071V16.203H22.2253V10.4771H27.1598V8.22587H22.2253V3.30894H27.4973V1.1008H19.0633V18.4112ZM36.6671 18.4112H39.8079V4.96339C39.8079 4.32017 39.9599 3.82948 40.2609 3.49129C40.5619 3.15311 40.9936 2.98402 41.5561 2.98402C42.1459 2.98402 42.5807 3.16305 42.8635 3.52445C43.1432 3.88584 43.2861 4.37985 43.2861 5.00649V18.4079H46.4481V5.14574C46.4481 4.53237 46.3721 3.95878 46.217 3.42167C46.062 2.88455 45.8035 2.42038 45.4356 2.03246C45.0708 1.64123 44.5935 1.32957 44.0006 1.1008C43.4138 0.872025 42.675 0.755981 41.7902 0.755981C40.793 0.755981 40.0146 0.901865 39.4613 1.19363C38.9049 1.4854 38.5005 1.83021 38.2482 2.22808C38.008 1.84679 37.6097 1.50529 37.0472 1.20358C36.4817 0.90518 35.7033 0.755981 34.7061 0.755981C33.8639 0.755981 33.1464 0.862078 32.5565 1.07759C31.9667 1.2931 31.4802 1.59149 31.1032 1.97278C30.7232 2.35738 30.4495 2.81824 30.2823 3.36199C30.1121 3.90573 30.03 4.49921 30.03 5.14242V18.4079H33.192V5.0098C33.192 4.38317 33.3318 3.88584 33.6146 3.52776C33.8943 3.16637 34.3382 2.98733 34.9432 2.98733C36.0956 2.98733 36.6732 3.64712 36.6732 4.96339V18.4112H36.6671ZM52.7326 10.8484L53.8302 3.30894H54.9673L56.0649 10.8484H52.7326ZM56.3598 13.0798L57.1199 18.4145H60.4309L57.6884 1.1008H51.109L48.4092 18.4112H51.6989L52.4377 13.0765H56.3598V13.0798ZM72.8478 5.49387C72.8478 4.11461 72.4648 3.03706 71.6986 2.26455C70.9324 1.49203 69.6858 1.10411 67.9558 1.10411H62.4102V18.4145H67.9558C69.6858 18.4145 70.9324 18.0531 71.6986 17.3336C72.4648 16.6142 72.8478 15.593 72.8478 14.2767V5.49055V5.49387ZM65.5722 3.30894H67.7217C68.494 3.30894 69.0139 3.50124 69.2815 3.88252C69.549 4.26713 69.6828 4.82413 69.6828 5.56018V13.9518C69.6828 14.7342 69.5125 15.3045 69.175 15.6659C68.8376 16.0273 68.2903 16.2063 67.5302 16.2063H65.5691V3.30894H65.5722ZM75.3349 18.4145H84V16.2063H78.4969V10.4804H83.474V8.22918H78.4969V3.30894H83.7689V1.1008H75.3349V18.4112V18.4145Z" fill="#9F9A94"/>
</g>
</g>
</g>
<defs>
<clipPath id="clip0_4_662">
<rect width="84" height="18" fill="white" transform="translate(0 0.755981)"/>
</clipPath>
</defs>
</svg>
