<svg width="18" height="18" viewBox="0 0 18 18" fill="none" xmlns="http://www.w3.org/2000/svg">
<mask id="mask0_1045_4841" style="mask-type:alpha" maskUnits="userSpaceOnUse" x="0" y="0" width="18" height="18">
<rect width="18" height="18" fill="#D9D9D9"/>
</mask>
<g mask="url(#mask0_1045_4841)">
<path fill-rule="evenodd" clip-rule="evenodd" d="M5.24902 4.49988V2.99988C5.24902 2.58738 5.3959 2.23425 5.68965 1.9405C5.9834 1.64675 6.33652 1.49988 6.74902 1.49988H11.249C11.6615 1.49988 12.0146 1.64675 12.3084 1.9405C12.6021 2.23425 12.749 2.58738 12.749 2.99988V4.49988H14.999C15.4115 4.49988 15.7646 4.64675 16.0584 4.9405C16.3521 5.23425 16.499 5.58738 16.499 5.99988V8.25655H14.999V5.99988H12.749V7.49988H11.249V5.99988H6.74902V7.49988H5.24902V5.99988H2.99902V14.2499H8.93334V15.7499H2.99902C2.58652 15.7499 2.2334 15.603 1.93965 15.3093C1.6459 15.0155 1.49902 14.6624 1.49902 14.2499V5.99988C1.49902 5.58738 1.6459 5.23425 1.93965 4.9405C2.2334 4.64675 2.58652 4.49988 2.99902 4.49988H5.24902ZM6.74902 4.49988H11.249V2.99988H6.74902V4.49988Z" fill="black"/>
<path d="M10.4355 16.5068V14.2006L14.5793 10.0756C14.6918 9.96309 14.8168 9.88184 14.9543 9.83184C15.0918 9.78184 15.2293 9.75684 15.3668 9.75684C15.5168 9.75684 15.6605 9.78496 15.798 9.84121C15.9355 9.89746 16.0605 9.98184 16.173 10.0943L16.8668 10.7881C16.9668 10.9006 17.0449 11.0256 17.1012 11.1631C17.1574 11.3006 17.1855 11.4381 17.1855 11.5756C17.1855 11.7131 17.1605 11.8537 17.1105 11.9975C17.0605 12.1412 16.9793 12.2693 16.8668 12.3818L12.7418 16.5068H10.4355ZM11.5605 15.3818H12.273L14.5418 13.0943L14.2043 12.7381L13.848 12.4006L11.5605 14.6693V15.3818ZM14.2043 12.7381L13.848 12.4006L14.5418 13.0943L14.2043 12.7381Z" fill="black"/>
</g>
</svg>
