<svg width="18" height="18" viewBox="0 0 18 18" fill="none" xmlns="http://www.w3.org/2000/svg">
<mask id="mask0_1045_4836" style="mask-type:alpha" maskUnits="userSpaceOnUse" x="0" y="0" width="18" height="18">
<rect width="18" height="18" fill="#D9D9D9"/>
</mask>
<g mask="url(#mask0_1045_4836)">
<path d="M3.7873 16.7812L2.7373 15.7125L4.9498 13.5H3.2623V12H7.4998V16.2375H5.9998V14.5688L3.7873 16.7812ZM8.9998 16.5V15H13.4998V6.75H9.7498V3H4.4998V10.5H2.9998V3C2.9998 2.5875 3.14668 2.23438 3.44043 1.94063C3.73418 1.64688 4.0873 1.5 4.4998 1.5H10.4998L14.9998 6V15C14.9998 15.4125 14.8529 15.7656 14.5592 16.0594C14.2654 16.3531 13.9123 16.5 13.4998 16.5H8.9998Z" fill="#1C1B1F"/>
</g>
</svg>
