<svg width="18" height="18" viewBox="0 0 18 18" fill="none" xmlns="http://www.w3.org/2000/svg">
<mask id="mask0_1045_4830" style="mask-type:alpha" maskUnits="userSpaceOnUse" x="0" y="0" width="18" height="18">
<rect width="18" height="18" fill="#D9D9D9"/>
</mask>
<g mask="url(#mask0_1045_4830)">
<path d="M8.9998 16.2C7.1598 16.2 5.55647 15.59 4.1898 14.37C2.82314 13.15 2.0398 11.6267 1.8398 9.80005H3.4798C3.66647 11.1867 4.28314 12.3334 5.3298 13.24C6.37647 14.1467 7.5998 14.6 8.9998 14.6C10.5598 14.6 11.8831 14.0567 12.9698 12.97C14.0565 11.8834 14.5998 10.56 14.5998 9.00005C14.5998 7.44005 14.0565 6.11672 12.9698 5.03005C11.8831 3.94338 10.5598 3.40005 8.9998 3.40005C8.0798 3.40005 7.2198 3.61338 6.41981 4.04005C5.6198 4.46672 4.94647 5.05338 4.3998 5.80005H6.00783V7.40005H1.7998V2.9063H3.3998V4.48005C4.0798 3.62672 4.9098 2.96672 5.8898 2.50005C6.8698 2.03338 7.90647 1.80005 8.9998 1.80005C9.9998 1.80005 10.9365 1.99005 11.8098 2.37005C12.6831 2.75005 13.4431 3.26338 14.0898 3.91005C14.7365 4.55672 15.2498 5.31672 15.6298 6.19005C16.0098 7.06338 16.1998 8.00005 16.1998 9.00005C16.1998 10 16.0098 10.9367 15.6298 11.81C15.2498 12.6834 14.7365 13.4434 14.0898 14.09C13.4431 14.7367 12.6831 15.25 11.8098 15.63C10.9365 16.01 9.9998 16.2 8.9998 16.2Z" fill="black"/>
<path d="M8.09961 9.4499L10.9496 12.2999L11.9996 11.2499L9.59961 8.8499V5.3999H8.09961V9.4499Z" fill="black"/>
</g>
</svg>
