<svg width="175" height="20" viewBox="0 0 175 20" fill="none" xmlns="http://www.w3.org/2000/svg">
<path d="M170.247 11.6625L171.522 14.8625H171.622L171.497 9.18752V0.587524H174.947V19.4125H170.597L168.922 16.0875L165.397 8.33752L164.122 5.13752H164.022L164.147 10.8125V19.4125H160.772V0.587524H165.122L166.797 3.91253L170.247 11.6625Z" fill="black"/>
<path d="M153.781 13.4125V6.58752C153.781 4.08752 152.581 2.76252 150.381 2.76252C148.181 2.76252 146.981 4.08752 146.981 6.58752V13.4125C146.981 15.9125 148.181 17.2375 150.381 17.2375C152.581 17.2375 153.781 15.9125 153.781 13.4125ZM157.281 6.48752V13.5125C157.281 17.4875 154.781 19.7875 150.381 19.7875C145.981 19.7875 143.481 17.4875 143.481 13.5125V6.48752C143.481 2.51252 145.981 0.212524 150.381 0.212524C154.781 0.212524 157.281 2.51252 157.281 6.48752Z" fill="black"/>
<path d="M139.98 0.587524V19.4125H136.48V0.587524H139.98Z" fill="black"/>
<path d="M120.268 3.01252V0.587524H133.868V3.01252H128.818V19.4125H125.318V3.01252H120.268Z" fill="black"/>
<path d="M117.618 19.4125L116.243 14.2125H110.043L108.693 19.4125H105.143L110.493 0.587524H115.843L121.193 19.4125H117.618ZM112.943 3.26252L110.693 11.7875H115.618L113.393 3.26252H112.943Z" fill="black"/>
<path d="M103.969 16.8625V19.4125H91.3691V18.0375L99.3191 3.13752H91.6691V0.587524H103.719V1.96252L95.7441 16.8625H103.969Z" fill="black"/>
<path d="M88.418 0.587524V19.4125H84.918V0.587524H88.418Z" fill="black"/>
<path d="M76.473 11.6625L77.748 14.8625H77.848L77.723 9.18752V0.587524H81.173V19.4125H76.823L75.148 16.0875L71.623 8.33752L70.348 5.13752H70.248L70.373 10.8125V19.4125H66.998V0.587524H71.348L73.023 3.91253L76.473 11.6625Z" fill="black"/>
<path d="M61.2211 19.4125L59.8461 14.2125H53.6461L52.2961 19.4125H48.7461L54.0961 0.587524H59.4461L64.7961 19.4125H61.2211ZM56.5461 3.26252L54.2961 11.7875H59.2211L56.9961 3.26252H56.5461Z" fill="black"/>
<path d="M47.5158 9.46252V13.8875C47.5158 17.7125 45.4408 19.7875 40.7408 19.7875C36.1158 19.7875 33.7158 17.4625 33.7158 13.7625V6.23752C33.7158 2.53752 35.9158 0.212524 40.5408 0.212524C45.0908 0.212524 47.3658 2.58752 47.3658 5.88752H43.8658C43.8658 3.96252 42.6408 2.76252 40.5408 2.76252C38.4408 2.76252 37.2158 3.86252 37.2158 6.58752V13.4125C37.2158 16.1375 38.6658 17.2375 40.7408 17.2375C42.9158 17.2375 44.0158 16.1125 44.0158 13.8875V11.9125H41.1408V9.46252H47.5158Z" fill="black"/>
<path d="M23.141 11.7875H20.541V19.4125H17.041V0.587524H24.341C28.166 0.587524 30.141 2.53752 30.141 5.56252V6.81252C30.141 9.38752 28.716 10.8125 26.691 11.3875L31.341 19.4125H27.441L23.141 11.7875ZM20.541 3.13752V9.23752H23.491C25.616 9.23752 26.641 7.81252 26.641 6.51252V5.86252C26.641 4.53752 25.766 3.13752 23.491 3.13752H20.541Z" fill="black"/>
<path d="M10.3 13.4125V6.58752C10.3 4.08752 9.1 2.76252 6.9 2.76252C4.7 2.76252 3.5 4.08752 3.5 6.58752V13.4125C3.5 15.9125 4.7 17.2375 6.9 17.2375C9.1 17.2375 10.3 15.9125 10.3 13.4125ZM13.8 6.48752V13.5125C13.8 17.4875 11.3 19.7875 6.9 19.7875C2.5 19.7875 0 17.4875 0 13.5125V6.48752C0 2.51252 2.5 0.212524 6.9 0.212524C11.3 0.212524 13.8 2.51252 13.8 6.48752Z" fill="black"/>
</svg>
