<svg width="20" height="20" viewBox="0 0 20 20" fill="none" xmlns="http://www.w3.org/2000/svg">
<mask id="mask0_475_7004" style="mask-type:alpha" maskUnits="userSpaceOnUse" x="0" y="0" width="20" height="20">
<rect width="20" height="20" fill="#D9D9D9"/>
</mask>
<g mask="url(#mask0_475_7004)">
<path d="M7.50017 3.39921V1.73254H12.5002V3.39921H7.50017Z" fill="#7B7773"/>
<path d="M9.16683 14.1666H7.50017L7.50016 7.83346H9.16683L9.16683 14.1666Z" fill="#7B7773"/>
<path d="M12.5002 14.1666H10.8335L10.8335 7.83346H12.5002L12.5002 14.1666Z" fill="#7B7773"/>
<path fill-rule="evenodd" clip-rule="evenodd" d="M4.65642 17.0104C4.98281 17.3368 5.37517 17.5 5.8335 17.5H14.1668C14.6252 17.5 15.0175 17.3368 15.3439 17.0104C15.6703 16.684 15.8335 16.2916 15.8335 15.8333L15.8335 6.16679H16.6668V4.50012H3.3335V6.16679H4.16683L4.16683 15.8333C4.16683 16.2916 4.33003 16.684 4.65642 17.0104ZM5.8335 6.16679H14.1668L14.1668 15.8333H5.8335L5.8335 6.16679Z" fill="currentColor"/>
</g>
</svg>
