<svg width="20" height="20" viewBox="0 0 20 20" fill="none" xmlns="http://www.w3.org/2000/svg">
<mask id="mask0_478_6210" style="mask-type:alpha" maskUnits="userSpaceOnUse" x="0" y="0" width="20" height="20">
<rect width="20" height="20" fill="#D9D9D9"/>
</mask>
<g mask="url(#mask0_478_6210)">
<path d="M1.66699 18.3334V16.6667H18.3337V18.3334H1.66699ZM5.00033 13.3334H6.16699L12.667 6.85425L11.4795 5.66675L5.00033 12.1667V13.3334ZM3.33366 15.0001V11.4584L12.667 2.14591C12.8198 1.99314 12.9969 1.87508 13.1982 1.79175C13.3996 1.70841 13.6114 1.66675 13.8337 1.66675C14.0559 1.66675 14.2712 1.70841 14.4795 1.79175C14.6878 1.87508 14.8753 2.00008 15.042 2.16675L16.1878 3.33341C16.3545 3.48619 16.476 3.66675 16.5524 3.87508C16.6288 4.08341 16.667 4.29869 16.667 4.52091C16.667 4.72925 16.6288 4.93411 16.5524 5.1355C16.476 5.33689 16.3545 5.52091 16.1878 5.68758L6.87533 15.0001H3.33366Z" fill="currentColor"/>
</g>
</svg>
