<svg width="16" height="17" viewBox="0 0 16 17" fill="none" xmlns="http://www.w3.org/2000/svg">
<mask id="mask0_555_9925" style="mask-type:alpha" maskUnits="userSpaceOnUse" x="0" y="0" width="16" height="17">
<rect y="0.5" width="16" height="16" fill="#D9D9D9"/>
</mask>
<g mask="url(#mask0_555_9925)">
<path d="M8 14.5C6.46667 14.5 5.13056 13.9917 3.99167 12.975C2.85278 11.9583 2.2 10.6889 2.03333 9.16667H3.4C3.55556 10.3222 4.06944 11.2778 4.94167 12.0333C5.81389 12.7889 6.83333 13.1667 8 13.1667C9.3 13.1667 10.4028 12.7139 11.3083 11.8083C12.2139 10.9028 12.6667 9.8 12.6667 8.5C12.6667 7.2 12.2139 6.09722 11.3083 5.19167C10.4028 4.28611 9.3 3.83333 8 3.83333C7.23333 3.83333 6.51667 4.01111 5.85 4.36667C5.18333 4.72222 4.62222 5.21111 4.16667 5.83333H6V7.16667H2V3.16667H3.33333V4.73333C3.9 4.02222 4.59167 3.47222 5.40833 3.08333C6.225 2.69444 7.08889 2.5 8 2.5C8.83333 2.5 9.61389 2.65833 10.3417 2.975C11.0694 3.29167 11.7028 3.71944 12.2417 4.25833C12.7806 4.79722 13.2083 5.43056 13.525 6.15833C13.8417 6.88611 14 7.66667 14 8.5C14 9.33333 13.8417 10.1139 13.525 10.8417C13.2083 11.5694 12.7806 12.2028 12.2417 12.7417C11.7028 13.2806 11.0694 13.7083 10.3417 14.025C9.61389 14.3417 8.83333 14.5 8 14.5Z" fill="currentColor"/>
</g>
</svg>
