<svg width="20" height="20" viewBox="0 0 20 20" fill="none" xmlns="http://www.w3.org/2000/svg">
<mask id="mask0_531_9708" style="mask-type:alpha" maskUnits="userSpaceOnUse" x="0" y="0" width="20" height="20">
<rect width="20" height="20" transform="matrix(4.37114e-08 1 1 -4.37114e-08 0 0)" fill="#D9D9D9"/>
</mask>
<g mask="url(#mask0_531_9708)">
<path d="M2.24929 15.2507C2.93925 15.2507 3.49858 15.81 3.49858 16.5C3.49858 17.19 2.93925 17.7493 2.24929 17.7493C1.55933 17.7493 1 17.19 1 16.5C1 15.81 1.55933 15.2507 2.24929 15.2507ZM5.75 15.7507H18.25C18.6642 15.7507 19 16.0865 19 16.5007C19 16.8804 18.7178 17.1942 18.3518 17.2439L18.25 17.2507H5.75C5.33579 17.2507 5 16.9149 5 16.5007C5 16.121 5.28215 15.8072 5.64823 15.7575L5.75 15.7507ZM2.24929 8.75073C2.93925 8.75073 3.49858 9.31003 3.49858 10C3.49858 10.69 2.93925 11.2493 2.24929 11.2493C1.55933 11.2493 1 10.69 1 10C1 9.31003 1.55933 8.75073 2.24929 8.75073ZM5.75 9.25073H18.25C18.6642 9.25073 19 9.58653 19 10.0007C19 10.3804 18.7178 10.6942 18.3518 10.7439L18.25 10.7507H5.75C5.33579 10.7507 5 10.4149 5 10.0007C5 9.62103 5.28215 9.30723 5.64823 9.25753L5.75 9.25073ZM2.24929 2.25073C2.93925 2.25073 3.49858 2.81006 3.49858 3.50002C3.49858 4.18998 2.93925 4.74931 2.24929 4.74931C1.55933 4.74931 1 4.18998 1 3.50002C1 2.81006 1.55933 2.25073 2.24929 2.25073ZM5.75 2.75073H18.25C18.6642 2.75073 19 3.08652 19 3.50073C19 3.88043 18.7178 4.19422 18.3518 4.24388L18.25 4.25073H5.75C5.33579 4.25073 5 3.91494 5 3.50073C5 3.12103 5.28215 2.80724 5.64823 2.75758L5.75 2.75073Z" fill="currentColor"/>
</g>
</svg>
