<svg width="20" height="20" viewBox="0 0 20 20" fill="none" xmlns="http://www.w3.org/2000/svg">
<mask id="mask0_482_6922" style="mask-type:alpha" maskUnits="userSpaceOnUse" x="0" y="0" width="20" height="20">
<rect width="20" height="20" transform="matrix(4.37114e-08 1 1 -4.37114e-08 0 0)" fill="#D9D9D9"/>
</mask>
<g mask="url(#mask0_482_6922)">
<path d="M18.6667 14.5C18.6667 13.9477 18.219 13.5 17.6667 13.5L16.1667 13.5L16.1667 10.3333C16.1667 9.78105 15.719 9.33334 15.1667 9.33334L6.16666 9.33334L6.16667 6.8335L7.66667 6.8335C8.21895 6.8335 8.66667 6.38578 8.66667 5.8335L8.66667 2.5C8.66667 1.94771 8.21895 1.5 7.66667 1.5L3 1.5C2.44771 1.5 2 1.94772 2 2.5L2 5.8335C2 6.38578 2.44772 6.8335 3 6.8335L4.5 6.8335L4.5 13.5L3 13.5C2.44772 13.5 2 13.9477 2 14.5L2 17.8332C2 18.3855 2.44772 18.8332 3 18.8332L7.66667 18.8332C8.21895 18.8332 8.66667 18.3855 8.66667 17.8332L8.66667 14.5C8.66667 13.9477 8.21895 13.5 7.66667 13.5L6.16667 13.5L6.16666 11L14.5 11L14.5 13.5L13 13.5C12.4477 13.5 12 13.9477 12 14.5L12 17.8332C12 18.3855 12.4477 18.8332 13 18.8332L17.6667 18.8332C18.219 18.8332 18.6667 18.3855 18.6667 17.8332L18.6667 14.5ZM7 15.1667L7 17.1665L3.66667 17.1665L3.66667 15.1667L7 15.1667ZM17 15.1667L17 17.1665L13.6667 17.1665L13.6667 15.1667L17 15.1667ZM7 3.16667L7 5.16683L3.66667 5.16683L3.66667 3.16667L7 3.16667Z" fill="currentColor"/>
</g>
</svg>
